<svg xmlns="http://www.w3.org/2000/svg" width="33" height="33" fill="none" viewBox="0 0 33 33"><path fill="#ff1e1e" d="M14.768 3c.77-1.333 2.694-1.333 3.464 0l10.825 18.75c.77 1.333-.192 3-1.732 3H5.675c-1.54 0-2.502-1.667-1.732-3z"/><path stroke="#fff" stroke-opacity=".8" d="M18.665 2.75c-.962-1.667-3.368-1.667-4.33 0L3.51 21.5c-.963 1.667.24 3.75 2.165 3.75h21.65c1.925 0 3.128-2.083 2.165-3.75z"/><path fill="#fff" d="M17.61 17.911h-2.23L15.066 9h2.86zm-1.115 1.395q.679 0 1.087.38.418.38.418.972 0 .583-.418.962-.409.38-1.087.38-.669 0-1.086-.38a1.26 1.26 0 0 1-.409-.962q0-.583.409-.963.417-.39 1.086-.389"/></svg>