<svg xmlns="http://www.w3.org/2000/svg" width="24" height="24" fill="#fff" viewBox="0 0 24 24"><path d="M9.214 4.496c.391 0 .767.154 1.043.428a1.45 1.45 0 0 1 0 2.063 1.48 1.48 0 0 1-2.085 0 1.45 1.45 0 0 1 0-2.063 1.48 1.48 0 0 1 1.042-.428m1.807 8.65 4.618 2.814 1.954-2.667 4.412 6.21H11.537l1.068-2.078 2.217-.006-4.992-3.038-.003-.001-.002-.004-6.213-3.808 2.427-3.263 4.244 1.944Zm-3.702 6.358h1.685l-.037-3.612-5.097-3.126-1.875 6.706c.074.021 1.734.032 1.734.032l1.152-4.101 2.438 1.558z"/></svg>