<svg xmlns="http://www.w3.org/2000/svg" width="24" height="24" viewBox="0 0 24 24"><path fill="none" d="M0 0h24v24H0z"/><path d="M12 1c-1.3 0-2.4.84-2.82 2H5c-1.1 0-2 .9-2 2v14c0 1.1.9 2 2 2h14c1.1 0 2-.9 2-2V5c0-1.1-.9-2-2-2h-4.18C14.4 1.84 13.3 1 12 1m0 2c.55 0 1 .45 1 1s-.45 1-1 1-1-.45-1-1 .45-1 1-1m-.63 4.143h1.26v6.095l1.634-1.627.888.889L12 15.652 8.848 12.5l.888-.889 1.633 1.627zm-5.042 5.673h1.26v4.413h8.824v-4.413h1.26v4.413c0 .693-.567 1.26-1.26 1.26H7.588c-.693 0-1.26-.567-1.26-1.26z"/></svg>