<svg xmlns="http://www.w3.org/2000/svg" width="24" height="24" fill="#fff" viewBox="0 -960 960 960"><path d="M398.047-283.314q-27.044 0-46.303-19.258-19.259-19.26-19.259-46.304v-393.373q0-27.044 19.259-46.303t46.303-19.259h295.03q27.044 0 46.303 19.26 19.26 19.258 19.26 46.302v393.373q0 27.045-19.26 46.304-19.259 19.258-46.303 19.258zm0-65.562h295.03v-393.373h-295.03ZM266.923-152.189q-27.044 0-46.303-19.26-19.26-19.258-19.26-46.302v-458.935h65.563v458.935h360.592v65.562zm131.124-196.687v-393.373z" style="stroke-width:.81952697"/></svg>