<svg xmlns="http://www.w3.org/2000/svg" width="24" height="24" fill="none" viewBox="0 0 24 24"><path fill="#fff" d="M5.463 16.825a3.488 3.488 0 1 0 6.976 0c0-1.926-1.503-3.477-3.515-3.475-2.012.003-3.434 1.636-3.461 3.475m2.033-1.316c.49-.505.8-.574 1.15-.621a1.96 1.96 0 0 1 2.267 1.938 1.96 1.96 0 0 1-1.962 1.962 1.96 1.96 0 0 1-1.455-3.279"/><path fill="#fff" d="M13.655 8.105a.65.65 0 0 0-.654.654c0 .362.292.654.654.654h.7l.944 1.744h-4.072l-.746-1.036a.65.65 0 0 0-.532-.272H8.423a.65.65 0 0 0-.654.654c0 .362.292.654.654.654h1.19c1.353 1.874 2.77 3.722 4.104 5.508l2.596-3.636.59 1.093a3.488 3.488 0 1 0 1.147-.621l-2.667-4.939a.87.87 0 0 0-.768-.457Zm3.996 7.404.88 1.627a.653.653 0 1 0 1.15-.621l-.88-1.627a1.96 1.96 0 0 1 2.267 1.938 1.96 1.96 0 0 1-1.962 1.962 1.96 1.96 0 0 1-1.455-3.279m-5.48-3.044h2.953l-1.437 2.095-1.52-2.095z"/><path fill="#fff" d="M5.608 4.722v3.546l1.693.008c.8-.003 1.42-.154 1.857-.461q.656-.462.656-1.315 0-.846-.656-1.308C8.72 4.884 8.1 4.734 7.3 4.73ZM3.887 3.673l3.414.008c1.425.004 2.501.24 3.228.72q1.1.715 1.1 2.1 0 1.395-1.1 2.11c-.727.476-1.803.721-3.228.714l-1.693-.008-.036 4.963H3.85Z"/></svg>