<svg xmlns="http://www.w3.org/2000/svg" width="24" height="24" fill="none" viewBox="0 0 24 24"><path fill="#fff" d="M10.905 3.548a2.82 2.82 0 0 0-2.648-1.871 2.804 2.804 0 0 0-2.808 2.807 2.81 2.81 0 0 0 2.808 2.808 2.83 2.83 0 0 0 2.648-1.872h4.838v1.872h1.872V5.42h.936V3.548ZM8.257 5.42a.94.94 0 0 1-.936-.936c0-.514.42-.936.936-.936.514 0 .935.422.935.936a.94.94 0 0 1-.935.936"/><path fill="#fff" d="M11.627 7.167a.65.65 0 0 0-.654.654c0 .362.292.654.654.654h.7l.943 1.744H9.2l-.747-1.036a.65.65 0 0 0-.531-.272H6.395a.65.65 0 0 0-.654.654c0 .362.291.654.654.654h1.19c1.353 1.874 2.77 3.722 4.104 5.508l2.595-3.636.592 1.093a3.488 3.488 0 1 0 1.147-.621l-2.668-4.939a.87.87 0 0 0-.769-.457Zm3.995 7.404.88 1.627a.653.653 0 1 0 1.15-.621l-.88-1.627a1.96 1.96 0 0 1 2.267 1.938 1.96 1.96 0 0 1-1.962 1.962 1.96 1.96 0 0 1-1.455-3.279m-5.48-3.044h2.954l-1.437 2.096-1.52-2.096z"/><path fill="#fff" d="M3.434 15.887a3.488 3.488 0 1 0 6.977 0c0-1.926-1.503-3.477-3.515-3.475-2.012.003-3.434 1.636-3.462 3.475m2.033-1.316c.49-.505.8-.574 1.15-.621a1.96 1.96 0 0 1 2.267 1.938 1.96 1.96 0 0 1-1.961 1.962 1.96 1.96 0 0 1-1.456-3.279"/></svg>