<svg xmlns="http://www.w3.org/2000/svg" width="24" height="24" viewBox="0 0 24 24"><path fill="none" d="M0 0h24v24H0z"/><path d="M20.755 5.595a1.3 1.3 0 0 0-1.301 1.302c0 .976 1.3 2.416 1.3 2.416s1.302-1.44 1.302-2.416a1.3 1.3 0 0 0-1.301-1.302m0 1.766a.465.465 0 1 1 0-.93.465.465 0 0 1 0 .93M3.236 11.714a1.3 1.3 0 0 0-1.301 1.302c0 .975 1.3 2.416 1.3 2.416s1.302-1.44 1.302-2.416a1.3 1.3 0 0 0-1.301-1.302m0 1.766a.465.465 0 1 1 0-.93.465.465 0 0 1 0 .93" style="stroke-width:.18588553"/><path d="M3.775 15.971A52 52 0 0 0 9.24 11.92c.547-.464 1.105-.952 1.788-1.172.342-.11.711-.147 1.062-.072.35.075.681.27.89.561.215.302.288.68.356 1.044.068.365.143.743.363 1.041.15.206.363.362.598.46.236.097.493.137.747.132.51-.01.999-.194 1.46-.412a9.74 9.74 0 0 0 4.035-3.577" style="fill:none;stroke:#000;stroke-width:1px;stroke-linecap:round;stroke-linejoin:miter;stroke-opacity:1"/></svg>