<svg xmlns="http://www.w3.org/2000/svg" width="24" height="24" fill="#fff" viewBox="0 0 24 24"><path fill="none" d="M0 0h24v24H0z"/><path d="M8.26 7 12 10.74 15.74 7 17 8.26 13.26 12 17 15.74 15.74 17 12 13.26 8.26 17 7 15.74 10.74 12 7 8.26Z" style="fill:#ffdfb4;fill-opacity:1;stroke:none;stroke-width:.40000001;stroke-miterlimit:4;stroke-dasharray:none;stroke-opacity:1"/><path d="M8.27 3 3 8.27v7.46L8.27 21h7.46L21 15.73V8.27L15.73 3zm-.01 4L12 10.74 15.74 7 17 8.26 13.26 12 17 15.74 15.74 17 12 13.26 8.26 17 7 15.74 10.74 12 7 8.26z" style="fill:#f0a028;fill-opacity:1;stroke:#94533d;stroke-opacity:1;stroke-width:.35;stroke-miterlimit:4;stroke-dasharray:none"/></svg>