<svg xmlns="http://www.w3.org/2000/svg" width="24" height="24" fill="currentColor" viewBox="0 0 24 24"><path fill="none" d="M0 0h24v24H0z"/><path d="M18 4h-2v7.9l2 .01zM4 4h2v16H4zm6 0h2v4h-2zm0 6h2l.022 2.696-1.331-1.425-.669.63z"/><path d="M8.57 9.814h14.984v15.25H8.57Zm0 0h14.984v15.25H8.57Zm0 0h14.984v15.25H8.57Zm0 0h14.984v15.25H8.57Z" style="fill:none;stroke-width:.62984955"/><path d="M16.062 14.262c1.723 0 3.122 1.424 3.122 3.177 0 .413-.082.8-.225 1.163l1.823 1.855a7.5 7.5 0 0 0 2.141-3.018c-1.08-2.79-3.746-4.765-6.867-4.765-.874 0-1.711.159-2.485.445l1.348 1.372a3 3 0 0 1 1.143-.229m-6.244-1.734 1.424 1.448.287.293a7.5 7.5 0 0 0-2.335 3.17c1.08 2.79 3.746 4.766 6.868 4.766a7.2 7.2 0 0 0 2.735-.534l.262.267 1.83 1.855.792-.807-11.07-11.265zm3.453 3.513.968.985q-.048.202-.05.413c0 1.055.836 1.906 1.873 1.906q.207-.002.406-.05l.967.984c-.418.21-.88.337-1.373.337-1.723 0-3.122-1.423-3.122-3.177 0-.502.125-.972.331-1.398m2.691-.495 1.967 2.001.012-.101c0-1.055-.836-1.907-1.873-1.907z" style="fill:currentColor;stroke-width:.62984955"/></svg>