<svg xmlns="http://www.w3.org/2000/svg" width="24" height="24" fill="currentColor" viewBox="0 0 24 24"><path fill="none" d="M0 0h24v24H0z"/><path d="M18 4h-2v7.9l2 .01zM4 4h2v16H4zm6 0h2v4h-2zm0 6h2v2.475L10 14Z"/><g style="fill:currentColor"><path d="M0 0h24v24H0Z" style="fill:none" transform="translate(8.54 9.88)scale(.6285)"/><path d="M16.082 12.71a7.43 7.43 0 0 0-6.914 4.713 7.43 7.43 0 0 0 6.914 4.714 7.43 7.43 0 0 0 6.913-4.714 7.43 7.43 0 0 0-6.913-4.714m0 7.855a3.144 3.144 0 0 1 0-6.285 3.144 3.144 0 0 1 0 6.285m0-5.028a1.883 1.883 0 0 0-1.886 1.886c0 1.043.843 1.885 1.886 1.885a1.883 1.883 0 0 0 1.885-1.885 1.883 1.883 0 0 0-1.885-1.886"/></g></svg>